<svg width="726" height="271" viewBox="0 0 726 271" fill="none" xmlns="http://www.w3.org/2000/svg">
<path d="M12.1092 139.539L39.9437 21.3508L118.921 22.1775C156.781 24.1858 213.822 41.7084 201.637 127.821C191.889 196.711 135.144 217.663 107.99 219.528L1.0393e-05 218.398L60.0747 177.116L106.842 175.187C122.179 172.93 131.119 165.875 136.031 158.567C142.308 149.23 154.439 124.748 152.748 101.518C151.057 78.2877 134.007 69.6196 125.693 68.1893L82.981 67.7422L58.4882 174.681L12.1092 139.539Z" fill="url(#paint0_linear_24_21)"/>
<path d="M225.785 219.29L265.025 33.4769H316.095L342.351 127.826L408.136 33.4769H462.38L423.14 219.29H368.896L388.516 126.383L345.814 187.552H316.672L299.649 126.383L280.029 219.29H225.785ZM494.808 222.175C481.92 222.175 472.206 219.771 465.666 214.962C459.318 210.153 456.145 202.651 456.145 192.457C456.145 188.033 456.722 183.224 457.876 178.03L490.48 24.8211H544.723L513.273 171.971C513.081 172.74 512.889 173.51 512.696 174.279C512.696 175.049 512.696 175.722 512.696 176.299C512.696 178.8 513.37 180.531 514.716 181.493C516.255 182.262 518.563 182.647 521.641 182.647C524.141 182.647 526.642 182.454 529.143 182.07C531.643 181.685 534.048 181.108 536.356 180.338L528.854 216.405C523.468 218.328 518.275 219.771 513.273 220.733C508.272 221.694 502.117 222.175 494.808 222.175ZM577.311 270.071C574.234 270.071 570.098 269.879 564.904 269.494C559.711 269.302 554.614 268.917 549.612 268.34C544.804 267.955 541.149 267.57 538.648 267.186L547.016 228.523C550.67 229.485 555.479 230.35 561.442 231.12C567.405 231.889 572.599 232.274 577.023 232.274C592.988 232.274 605.491 230.927 614.532 228.234C623.572 225.734 628.766 221.213 630.112 214.673L631.266 208.903C624.919 212.75 617.802 215.924 609.915 218.424C602.029 220.925 593.084 222.175 583.082 222.175C570.771 222.175 560.865 218.617 553.363 211.5C545.862 204.19 542.111 194.38 542.111 182.07C542.111 179.954 542.207 177.838 542.399 175.722C542.784 173.414 543.169 171.105 543.553 168.797L561.731 82.5269H615.974L598.662 164.469C598.085 167.355 597.797 169.951 597.797 172.26C597.797 176.107 598.951 178.8 601.259 180.338C603.76 181.685 607.703 182.358 613.089 182.358C617.513 182.358 622.033 181.396 626.65 179.473C631.266 177.549 635.113 175.145 638.191 172.26L657.234 82.5269H711.477L686.375 201.113C683.49 215.154 678.104 227.273 670.218 237.467C662.331 247.854 650.886 255.837 635.883 261.415C621.072 267.186 601.548 270.071 577.311 270.071Z" fill="black"/>
<circle cx="691.345" cy="34.6553" r="34.6553" fill="#E92D30"/>
<defs>
<linearGradient id="paint0_linear_24_21" x1="153.341" y1="-6.03922" x2="16.373" y2="229.321" gradientUnits="userSpaceOnUse">
<stop stop-color="#DD1D20"/>
<stop offset="1" stop-color="#F43E41"/>
</linearGradient>
</defs>
</svg>
